<svg xmlns="http://www.w3.org/2000/svg" viewBox="0 0 54.14 56.74"><defs><style>.cls-1{fill:#fff;}</style></defs><g id="Calque_2" data-name="Calque 2"><g id="Calque_1-2" data-name="Calque 1"><g id="DAlXyv.tif"><path class="cls-1" d="M54.14,28.43C53.79,33.84,54,39.36,53,44.63,51,54.45,42.67,59.4,33.57,55.29A151,151,0,0,1,6.31,39.49c-8.67-6.39-8.31-16.65.48-23A154,154,0,0,1,31.9,1.82C43.21-3.38,52.72,3,53.7,15.57c.33,4.25,0,8.56,0,12.84Zm-6.33-.29h0c0-3.77.11-7.56,0-11.33-.34-9.59-6.49-13.5-15-9.13-7.29,3.77-14.37,8-21.27,12.42-7.21,4.64-7.3,11.55-.13,16.23A244.23,244.23,0,0,0,33.64,49.16C41.21,53,47.18,49.39,47.76,41,48.05,36.7,47.81,32.42,47.81,28.14Z"/></g></g></g></svg>