<svg xmlns="http://www.w3.org/2000/svg" viewBox="0 0 99.94 68.05"><defs><style>.cls-1{fill:#fff;}</style></defs><g id="Calque_2" data-name="Calque 2"><g id="Calque_1-2" data-name="Calque 1"><g id="JSlhXn.tif"><path class="cls-1" d="M39.63,0a29.48,29.48,0,0,1,4.18,1.41Q68.36,13.17,92.86,25c3.92,1.88,7.19,4.12,7.07,9.1s-3.34,7.08-7.28,9Q68.52,54.55,44.5,66.28c-4.19,2-8.26,2.88-11.92-.6s-3.18-7.54-1.12-11.8c2.16-4.43,3.7-9.19,6.07-13.49,2.49-4.52,2.21-8.52-.06-13a154.13,154.13,0,0,1-6.9-15.82C28.34,5.64,32.44,0,39.63,0Zm.78,9.6-.82.81c2.56,5.84,5,11.73,7.79,17.46.46,1,2.31,1.75,3.54,1.77,9.86.14,19.72.08,31.11.08Zm39.8,29.6L80,38.32c-10,0-20,0-30,.07a3.54,3.54,0,0,0-2.63,1.66c-2.75,5.88-5.29,11.85-8.47,19.07Z"/><path class="cls-1" d="M13.9,39.14c-3,0-6.07.54-8.83-.19-1.93-.51-3.4-2.76-5.07-4.24,1.6-1.53,3.09-4.22,4.81-4.38a101.61,101.61,0,0,1,18.21,0c1.73.15,3.22,2.85,4.82,4.39-1.68,1.47-3.17,3.73-5.11,4.24C20,39.68,16.86,39.14,13.9,39.14Z"/><path class="cls-1" d="M18.67,23.3c-3.75-.3-9.11,1-9-4.85.14-5.4,5.29-4.3,8.93-4.32,3.81,0,9.11-1,9,4.77C27.5,24.31,22.32,23,18.67,23.3Z"/><path class="cls-1" d="M18.46,55c-3.55-.28-8.63,1.11-8.71-4.46s4.95-4.68,8.59-4.65,9.22-1.11,9.3,4.49S22.28,54.78,18.46,55Z"/></g></g></g></svg>