<svg xmlns="http://www.w3.org/2000/svg" viewBox="0 0 142.35 142.12"><defs><style>.cls-1{fill:#fff;}</style></defs><g id="Calque_2" data-name="Calque 2"><g id="Calque_1-2" data-name="Calque 1"><g id="IdbGZM.tif"><path class="cls-1" d="M71.25,142.12c-7.67,0-13.64-4.31-16.13-11.65-2.61-7.7-7.1-9.58-14.53-6.1s-14.19,2.46-19.68-3S14.32,109,17.73,101.73c3.58-7.66,1.79-11.81-6.39-14.76C4.14,84.36,0,78.6,0,71.14c0-7.67,4.25-13.55,11.66-16.09,7.73-2.65,9.61-7.11,6.11-14.53s-2.46-14.15,3-19.64,12.34-6.58,19.65-3.17c7.52,3.5,11.92,1.72,14.65-5.93S63.42,0,71.1,0C79,0,84.66,4.23,87.33,12.13c2.36,7,7.27,9,14,5.87,7.87-3.72,14.52-2.8,20.1,2.77s6.58,12.34,2.93,20.05c-3.19,6.76-1.24,11.62,5.68,14.1,8.31,3,12.3,8.18,12.31,16.06s-4.12,13.36-12.63,16.33c-6.33,2.21-8.47,7.31-5.62,13.42,3.9,8.39,3.1,14.86-2.56,20.51s-12.26,6.53-20.52,2.69c-6.33-3-11.27-.82-13.68,5.91C84.35,138.13,79.14,142.11,71.25,142.12Zm37.85-23.59c7.21-.47,11.72-7.23,8-14.33-5.18-9.91-1-20.5,9-23.92,4.7-1.59,8.28-3.79,8.28-9.12s-3.33-7.65-8.1-9.28C116.25,58.44,112,48,116.69,38.49c2.24-4.5,2.9-8.51-.94-12.23-3.66-3.56-7.64-2.8-11.9-.74C94,30.26,83.58,25.91,80.2,15.6c-1.51-4.63-4-7.74-9-7.7S63.67,11,62.1,15.63c-3.55,10.42-13.89,14.75-23.67,9.93-4.32-2.12-8.21-2.81-11.87.73-3.86,3.72-3.1,7.83-.95,12.27,4.63,9.54.32,20.12-9.64,23.37-4.8,1.57-8.15,4-8,9.27.09,5,3.25,7.39,7.86,9,10.38,3.52,14.62,13.92,9.76,23.69-2.15,4.32-2.7,8.22.87,11.84s7.55,3.1,11.86,1c10.18-4.91,20.29-.66,23.93,10.07,1.49,4.4,4,7.39,8.74,7.44,5,.06,7.65-2.83,9.24-7.49,3.75-10.94,13.74-14.83,24.43-9.87C106.24,117.61,108,118.12,109.1,118.53Z"/><path class="cls-1" d="M71.19,52.16a18.9,18.9,0,1,1-18.95,19A19,19,0,0,1,71.19,52.16ZM82.13,71.09A11,11,0,1,0,71,82,10.95,10.95,0,0,0,82.13,71.09Z"/></g></g></g></svg>